# xmcd CD database file
#
# Track frame offsets:
#	151
#	15350
#	28433
#	38103
#	71259
#	97151
#	104844
#	141529
#	150951
#	161454
#	172106
#	221655
#
# Disc length: 3124 seconds
#
# Revision: 1
# Processed by: cddbd v1.5.1PL0 Copyright (c) Steve Scherf et al.
# Submitted via: jetAudio 5
#
DISCID=a80c320c
DTITLE=Canned Heat - On The Road Again
DYEAR=1900
DGENRE=
TTITLE0=On the road again
TTITLE1=Same all over
TTITLE2=Rolling and tumbling
TTITLE3=Bullfrog blues
TTITLE4=Dust my room
TTITLE5=Pretty thing
TTITLE6=Wish you would (strut my stuff)
TTITLE7=Big road blues
TTITLE8=Spoonful
TTITLE9=I got my eyes on you
TTITLE10=Sweet sixteen
TTITLE11=Got my mojo working
EXTD=
EXTT0=
EXTT1=
EXTT2=
EXTT3=
EXTT4=
EXTT5=
EXTT6=
EXTT7=
EXTT8=
EXTT9=
EXTT10=
EXTT11=
PLAYORDER=
